<svg xmlns="http://www.w3.org/2000/svg" xmlns:xlink="http://www.w3.org/1999/xlink" viewBox="0 0 374 1079"><defs><style>.cls-1{fill:#3d3d3d;}.cls-2,.cls-3,.cls-4{fill:none;}.cls-2,.cls-4{stroke:#3d3d3d;}.cls-4{stroke-width:5px;}</style></defs><g id="Lag_2" data-name="Lag 2"><g id="Lag_1-2" data-name="Lag 1"><g id="Sidemenu"><g id="Rectangle_175" data-name="Rectangle 175"><rect class="cls-1" x="62.85" y="82.89" width="24.47" height="4.93"/><rect class="cls-2" x="63.38" y="83.38" width="23.4" height="3.94"/></g><g id="Rectangle_176" data-name="Rectangle 176"><rect class="cls-1" x="60.72" y="107.52" width="25.53" height="4.93"/><rect class="cls-2" x="61.25" y="108.01" width="24.47" height="3.94"/></g><g id="Group_102" data-name="Group 102"><rect id="Rectangle_129" data-name="Rectangle 129" class="cls-1" x="48.47" y="35.98" width="21.08" height="1023.8"/><path id="Path_220" data-name="Path 220" class="cls-1" d="M37.77,927.88S25.11,1018.71,9,1017.56v17.29s10.25,17.68,0,24.93V1074H59V927.88Z"/><path id="Path_221" data-name="Path 221" class="cls-1" d="M80.25,927.88s12.66,90.83,28.77,89.68v17.29s-10.25,17.68,0,24.93V1074H59V927.88Z"/><path id="Rectangle_131-2" data-name="Rectangle 131-2" class="cls-1" d="M6.72,1016.83H111.3a4.43,4.43,0,0,1,4.58,4.25v11.18a4.42,4.42,0,0,1-4.58,4.24H6.72a4.42,4.42,0,0,1-4.58-4.24v-11.18A4.43,4.43,0,0,1,6.72,1016.83Z"/><path id="Rectangle_132-2" data-name="Rectangle 132-2" class="cls-1" d="M5.77,1054.24H112.25a5.57,5.57,0,0,1,5.77,5.35v14.06a5.57,5.57,0,0,1-5.77,5.35H5.77A5.57,5.57,0,0,1,0,1073.65v-14.06A5.57,5.57,0,0,1,5.77,1054.24Z"/><path id="Rectangle_130-2" data-name="Rectangle 130-2" class="cls-1" d="M32.68,919.57H85.33a2.72,2.72,0,0,1,2.82,2.62v11.38a2.72,2.72,0,0,1-2.82,2.61H32.68a2.72,2.72,0,0,1-2.82-2.61V922.19A2.72,2.72,0,0,1,32.68,919.57Z"/><ellipse id="Ellipse_33-2" data-name="Ellipse 33-2" class="cls-1" cx="59.01" cy="29.4" rx="29.86" ry="29.4"/></g><rect id="Rectangle_177" data-name="Rectangle 177" class="cls-1" x="55.4" y="189.55" width="318.07" height="4.93"/><g id="Rectangle_178" data-name="Rectangle 178"><rect class="cls-3" x="85.19" y="61.21" width="282.96" height="72.92"/><rect class="cls-4" x="82.53" y="58.75" width="288.28" height="77.84"/></g><rect id="Rectangle_179" data-name="Rectangle 179" class="cls-1" x="78.81" y="892.1" width="295.19" height="4.93"/></g><image width="1330" height="374" transform="translate(84.63 61.04) scale(0.21 0.2)" xlink:href="../../Downloads/stoppestedet.png"/></g></g></svg>